# Blender 4.0.1
# www.blender.org
mtllib Terrain_Object.mtl
o Plane.002
v -121.528252 0.000000 1.374334
v -39.011913 0.000000 0.121724
v -771.031738 0.000000 -1229.840332
v -384.344421 0.000000 -1054.837891
v -489.610229 0.000000 -577.008301
v -149.931580 0.000000 -494.647308
v -71.064331 0.000000 -701.377014
v -538.730957 0.000000 -865.573364
v -174.815002 0.000000 -850.303345
v -600.091003 0.000000 -1009.855835
v -521.764221 0.000000 -721.290833
v -106.424477 0.000000 -618.339600
v -327.216949 0.000000 -162.273300
v -156.542206 0.000000 -247.262787
v -165.857178 0.000000 -386.375793
v -438.764435 0.000000 -432.725800
v -382.967285 0.000000 -297.499573
v -172.666016 0.000000 -309.108917
v -254.020203 0.000000 -89.253471
v -120.617584 0.000000 -123.570534
v -149.143433 0.000000 -185.416656
v -290.618591 0.000000 -125.763382
v -187.774231 0.000000 -43.939568
v -82.162193 0.000000 -73.931160
v -39.011913 2.966552 0.121724
v -121.528252 2.966552 1.374334
v -187.774231 2.966552 -43.939568
v -384.344421 2.966552 -1054.837891
v -771.031738 2.966552 -1229.840332
v -174.815002 2.966552 -850.303345
v -521.764221 2.966552 -721.290833
v -489.610229 2.966552 -577.008301
v -165.857178 2.966552 -386.375793
v -149.931580 2.966552 -494.647308
v -106.424477 2.966552 -618.339600
v -71.064331 2.966552 -701.377014
v -600.091003 2.966552 -1009.855835
v -538.730957 2.966552 -865.573364
v -382.967285 2.966552 -297.499573
v -327.216949 2.966552 -162.273300
v -149.143433 2.966552 -185.416656
v -156.542206 2.966552 -247.262787
v -172.666016 2.966552 -309.108917
v -438.764435 2.966552 -432.725800
v -290.618591 2.966552 -125.763382
v -254.020203 2.966552 -89.253471
v -82.162193 2.966552 -73.931160
v -120.617584 2.966552 -123.570534
vn -0.0000 -1.0000 -0.0000
vn -0.0000 1.0000 -0.0000
vn 0.9894 -0.0000 0.1455
vn -0.9431 -0.0000 0.3324
vn -0.9932 -0.0000 0.1168
vn 0.9081 -0.0000 -0.4188
vn 0.9433 -0.0000 0.3318
vn -0.7063 -0.0000 0.7080
vn 0.9201 -0.0000 0.3918
vn -0.9244 -0.0000 0.3814
vn 0.0152 -0.0000 0.9999
vn -0.9202 -0.0000 0.3914
vn 0.9677 -0.0000 -0.2523
vn -0.5646 -0.0000 0.8254
vn -0.9245 -0.0000 0.3812
vn 0.4123 -0.0000 -0.9110
vn 0.9929 -0.0000 -0.1188
vn 0.8640 -0.0000 -0.5035
vn 0.8205 -0.0000 -0.5716
vn 0.6985 -0.0000 -0.7156
vn -0.7896 -0.0000 0.6136
vn 0.7905 -0.0000 -0.6124
vn -0.9761 -0.0000 0.2175
vn 0.9961 -0.0000 0.0878
vt 0.000000 0.000000
s 0
f 10/1/1 3/1/1 4/1/1 9/1/1
f 16/1/1 5/1/1 6/1/1 15/1/1
f 11/1/1 8/1/1 7/1/1 12/1/1
f 8/1/1 10/1/1 9/1/1 7/1/1
f 5/1/1 11/1/1 12/1/1 6/1/1
f 22/1/1 13/1/1 14/1/1 21/1/1
f 17/1/1 16/1/1 15/1/1 18/1/1
f 13/1/1 17/1/1 18/1/1 14/1/1
f 23/1/1 19/1/1 20/1/1 24/1/1
f 19/1/1 22/1/1 21/1/1 20/1/1
f 1/1/1 23/1/1 24/1/1 2/1/1
f 37/1/2 30/1/2 28/1/2 29/1/2
f 44/1/2 33/1/2 34/1/2 32/1/2
f 31/1/2 35/1/2 36/1/2 38/1/2
f 38/1/2 36/1/2 30/1/2 37/1/2
f 32/1/2 34/1/2 35/1/2 31/1/2
f 45/1/2 41/1/2 42/1/2 40/1/2
f 39/1/2 43/1/2 33/1/2 44/1/2
f 40/1/2 42/1/2 43/1/2 39/1/2
f 27/1/2 47/1/2 48/1/2 46/1/2
f 46/1/2 48/1/2 41/1/2 45/1/2
f 26/1/2 25/1/2 47/1/2 27/1/2
f 15/1/3 6/1/3 34/1/3 33/1/3
f 5/1/4 16/1/4 44/1/4 32/1/4
f 8/1/5 11/1/5 31/1/5 38/1/5
f 20/1/6 21/1/6 41/1/6 48/1/6
f 6/1/7 12/1/7 35/1/7 34/1/7
f 13/1/8 22/1/8 45/1/8 40/1/8
f 12/1/9 7/1/9 36/1/9 35/1/9
f 16/1/10 17/1/10 39/1/10 44/1/10
f 1/1/11 2/1/11 25/1/11 26/1/11
f 10/1/12 8/1/12 38/1/12 37/1/12
f 14/1/13 18/1/13 43/1/13 42/1/13
f 23/1/14 1/1/14 26/1/14 27/1/14
f 17/1/15 13/1/15 40/1/15 39/1/15
f 19/1/14 23/1/14 27/1/14 46/1/14
f 4/1/16 3/1/16 29/1/16 28/1/16
f 21/1/17 14/1/17 42/1/17 41/1/17
f 2/1/18 24/1/18 47/1/18 25/1/18
f 7/1/19 9/1/19 30/1/19 36/1/19
f 22/1/8 19/1/8 46/1/8 45/1/8
f 9/1/20 4/1/20 28/1/20 30/1/20
f 3/1/21 10/1/21 37/1/21 29/1/21
f 24/1/22 20/1/22 48/1/22 47/1/22
f 11/1/23 5/1/23 32/1/23 31/1/23
f 18/1/24 15/1/24 33/1/24 43/1/24
o Plane
v -117.723335 0.000000 -160.742477
v -38.224670 0.000000 -48.704651
v -120.316429 0.000000 -514.572998
v -39.542374 0.000000 -676.423340
v -148.748032 0.000000 -319.065918
v -41.511101 0.000000 -343.296112
v -41.511101 0.000000 -493.296112
v -140.832794 0.000000 -434.397156
v -148.748032 2.966552 -319.065918
v -117.723335 2.966552 -160.742477
v -38.224670 2.966552 -48.704651
v -41.511101 2.966552 -493.296112
v -39.542374 2.966552 -676.423340
v -120.316429 2.966552 -514.572998
v -140.832794 2.966552 -434.397156
v -41.511101 2.966552 -343.296112
vn -0.0000 -1.0000 -0.0000
vn -0.0000 1.0000 -0.0000
vn 0.9999 -0.0000 0.0107
vn -0.9813 -0.0000 0.1923
vn 1.0000 -0.0000 -0.0000
vn 0.9999 -0.0000 -0.0112
vn -0.8948 -0.0000 -0.4465
vn -0.8155 -0.0000 0.5787
vn -0.9688 -0.0000 -0.2479
vn -0.9977 -0.0000 -0.0685
vt 0.000000 0.750000
vt 0.000000 1.000000
vt 1.000000 1.000000
vt 1.000000 0.750000
vt 0.000000 0.000000
vt 0.000000 0.500000
vt 1.000000 0.500000
vt 1.000000 0.000000
s 0
f 56/2/25 51/3/25 52/4/25 55/5/25
f 49/6/25 53/7/25 54/8/25 50/9/25
f 53/7/25 56/2/25 55/5/25 54/8/25
f 63/2/26 60/5/26 61/4/26 62/3/26
f 58/6/26 59/9/26 64/8/26 57/7/26
f 57/7/26 64/8/26 60/5/26 63/2/26
f 55/5/27 52/4/27 61/4/27 60/5/27
f 53/7/28 49/6/28 58/6/28 57/7/28
f 54/8/29 55/5/29 60/5/29 64/8/29
f 50/9/30 54/8/30 64/8/30 59/9/30
f 52/4/31 51/3/31 62/3/31 61/4/31
f 49/6/32 50/9/32 59/9/32 58/6/32
f 51/3/33 56/2/33 63/2/33 62/3/33
f 56/2/34 53/7/34 57/7/34 63/2/34
o Plane.004
v 60.015915 0.000000 -160.742477
v -19.482750 0.000000 -48.704651
v 62.609009 0.000000 -514.572998
v -19.730019 0.000000 -676.423340
v 91.040619 0.000000 -319.065918
v -16.196320 0.000000 -343.296112
v -16.196320 0.000000 -493.296112
v 83.125381 0.000000 -434.397156
v 91.040619 2.966552 -319.065918
v 60.015915 2.966552 -160.742477
v -19.482750 2.966552 -48.704651
v -16.196320 2.966552 -493.296112
v -19.730019 2.966552 -676.423340
v 62.609009 2.966552 -514.572998
v 83.125381 2.966552 -434.397156
v -16.196320 2.966552 -343.296112
vn -0.0000 -1.0000 -0.0000
vn -0.0000 1.0000 -0.0000
vn -1.0000 -0.0000 -0.0000
vn -0.9999 -0.0000 -0.0112
vn 0.8913 -0.0000 -0.4534
vn 0.8155 -0.0000 0.5787
vn 0.9688 -0.0000 -0.2479
vn 0.9977 -0.0000 -0.0685
vn -0.9998 -0.0000 0.0193
vn 0.9813 -0.0000 0.1923
vt 0.000000 0.750000
vt 0.000000 1.000000
vt 1.000000 1.000000
vt 1.000000 0.750000
vt 0.000000 0.000000
vt 0.000000 0.500000
vt 1.000000 0.500000
vt 1.000000 0.000000
s 0
f 72/10/35 71/13/35 68/12/35 67/11/35
f 65/14/35 66/17/35 70/16/35 69/15/35
f 69/15/35 70/16/35 71/13/35 72/10/35
f 79/10/36 78/11/36 77/12/36 76/13/36
f 74/14/36 73/15/36 80/16/36 75/17/36
f 73/15/36 79/10/36 76/13/36 80/16/36
f 70/16/37 80/16/37 76/13/37 71/13/37
f 66/17/38 75/17/38 80/16/38 70/16/38
f 68/12/39 77/12/39 78/11/39 67/11/39
f 65/14/40 74/14/40 75/17/40 66/17/40
f 67/11/41 78/11/41 79/10/41 72/10/41
f 72/10/42 79/10/42 73/15/42 69/15/42
f 71/13/43 76/13/43 77/12/43 68/12/43
f 69/15/44 73/15/44 74/14/44 65/14/44
o Plane.003
v 62.809433 0.000000 1.374334
v -19.706905 0.000000 0.121724
v 712.312866 0.000000 -1229.840332
v 325.625610 0.000000 -1054.837891
v 430.891418 0.000000 -577.008301
v 91.212769 0.000000 -494.647308
v 12.345509 0.000000 -701.377014
v 480.012146 0.000000 -865.573364
v 116.096176 0.000000 -850.303345
v 541.372192 0.000000 -1009.855835
v 463.045380 0.000000 -721.290833
v 47.705658 0.000000 -618.339600
v 268.498138 0.000000 -162.273300
v 97.823380 0.000000 -247.262787
v 107.138367 0.000000 -386.375793
v 380.045624 0.000000 -432.725800
v 324.248474 0.000000 -297.499573
v 113.947205 0.000000 -309.108917
v 195.301392 0.000000 -89.253471
v 61.898766 0.000000 -123.570534
v 90.424614 0.000000 -185.416656
v 231.899780 0.000000 -125.763382
v 129.055405 0.000000 -43.939568
v 23.443375 0.000000 -73.931160
v -19.706905 2.966552 0.121724
v 62.809433 2.966552 1.374334
v 129.055405 2.966552 -43.939568
v 325.625610 2.966552 -1054.837891
v 712.312866 2.966552 -1229.840332
v 116.096176 2.966552 -850.303345
v 463.045380 2.966552 -721.290833
v 430.891418 2.966552 -577.008301
v 107.138367 2.966552 -386.375793
v 91.212769 2.966552 -494.647308
v 47.705658 2.966552 -618.339600
v 12.345509 2.966552 -701.377014
v 541.372192 2.966552 -1009.855835
v 480.012146 2.966552 -865.573364
v 324.248474 2.966552 -297.499573
v 268.498138 2.966552 -162.273300
v 90.424614 2.966552 -185.416656
v 97.823380 2.966552 -247.262787
v 113.947205 2.966552 -309.108917
v 380.045624 2.966552 -432.725800
v 231.899780 2.966552 -125.763382
v 195.301392 2.966552 -89.253471
v 23.443375 2.966552 -73.931160
v 61.898766 2.966552 -123.570534
vn -0.0000 -1.0000 -0.0000
vn -0.0000 1.0000 -0.0000
vn 0.9932 -0.0000 0.1168
vn -0.9081 -0.0000 -0.4188
vn -0.9433 -0.0000 0.3318
vn 0.7063 -0.0000 0.7080
vn -0.9201 -0.0000 0.3918
vn 0.9244 -0.0000 0.3814
vn -0.0152 -0.0000 0.9999
vn 0.9202 -0.0000 0.3914
vn -0.9677 -0.0000 -0.2523
vn 0.5646 -0.0000 0.8254
vn 0.9245 -0.0000 0.3812
vn -0.4123 -0.0000 -0.9110
vn -0.9929 -0.0000 -0.1188
vn -0.8640 -0.0000 -0.5035
vn -0.8205 -0.0000 -0.5716
vn -0.6985 -0.0000 -0.7156
vn 0.7896 -0.0000 0.6136
vn -0.7905 -0.0000 -0.6124
vn 0.9761 -0.0000 0.2175
vn -0.9961 -0.0000 0.0878
vn -0.9894 -0.0000 0.1455
vn 0.9431 -0.0000 0.3324
vt 0.000000 0.000000
s 0
f 90/18/45 89/18/45 84/18/45 83/18/45
f 96/18/45 95/18/45 86/18/45 85/18/45
f 91/18/45 92/18/45 87/18/45 88/18/45
f 88/18/45 87/18/45 89/18/45 90/18/45
f 85/18/45 86/18/45 92/18/45 91/18/45
f 102/18/45 101/18/45 94/18/45 93/18/45
f 97/18/45 98/18/45 95/18/45 96/18/45
f 93/18/45 94/18/45 98/18/45 97/18/45
f 103/18/45 104/18/45 100/18/45 99/18/45
f 99/18/45 100/18/45 101/18/45 102/18/45
f 81/18/45 82/18/45 104/18/45 103/18/45
f 117/18/46 109/18/46 108/18/46 110/18/46
f 124/18/46 112/18/46 114/18/46 113/18/46
f 111/18/46 118/18/46 116/18/46 115/18/46
f 118/18/46 117/18/46 110/18/46 116/18/46
f 112/18/46 111/18/46 115/18/46 114/18/46
f 125/18/46 120/18/46 122/18/46 121/18/46
f 119/18/46 124/18/46 113/18/46 123/18/46
f 120/18/46 119/18/46 123/18/46 122/18/46
f 107/18/46 126/18/46 128/18/46 127/18/46
f 126/18/46 125/18/46 121/18/46 128/18/46
f 106/18/46 107/18/46 127/18/46 105/18/46
f 88/18/47 118/18/47 111/18/47 91/18/47
f 100/18/48 128/18/48 121/18/48 101/18/48
f 86/18/49 114/18/49 115/18/49 92/18/49
f 93/18/50 120/18/50 125/18/50 102/18/50
f 92/18/51 115/18/51 116/18/51 87/18/51
f 96/18/52 124/18/52 119/18/52 97/18/52
f 81/18/53 106/18/53 105/18/53 82/18/53
f 90/18/54 117/18/54 118/18/54 88/18/54
f 94/18/55 122/18/55 123/18/55 98/18/55
f 103/18/56 107/18/56 106/18/56 81/18/56
f 97/18/57 119/18/57 120/18/57 93/18/57
f 99/18/56 126/18/56 107/18/56 103/18/56
f 84/18/58 108/18/58 109/18/58 83/18/58
f 101/18/59 121/18/59 122/18/59 94/18/59
f 82/18/60 105/18/60 127/18/60 104/18/60
f 87/18/61 116/18/61 110/18/61 89/18/61
f 102/18/50 125/18/50 126/18/50 99/18/50
f 89/18/62 110/18/62 108/18/62 84/18/62
f 83/18/63 109/18/63 117/18/63 90/18/63
f 104/18/64 127/18/64 128/18/64 100/18/64
f 91/18/65 111/18/65 112/18/65 85/18/65
f 98/18/66 123/18/66 113/18/66 95/18/66
f 95/18/67 113/18/67 114/18/67 86/18/67
f 85/18/68 112/18/68 124/18/68 96/18/68
o Plane.005
v 60.015915 0.000000 -810.841919
v -19.482750 0.000000 -698.804077
v 215.966888 0.000000 -1329.050781
v -19.730019 0.000000 -1536.806641
v 204.944305 0.000000 -969.165344
v -16.196320 0.000000 -993.395569
v -16.196320 0.000000 -1143.395508
v 319.279175 0.000000 -1084.496582
v 204.944305 2.966552 -969.165344
v 60.015915 2.966552 -810.841919
v -19.482750 2.966552 -698.804077
v -16.196320 2.966552 -1143.395508
v -19.730019 2.966552 -1536.806641
v 215.966888 2.966552 -1329.050781
v 319.279175 2.966552 -1084.496582
v -16.196320 2.966552 -993.395569
vn -0.0000 -1.0000 -0.0000
vn -0.0000 1.0000 -0.0000
vn 0.7102 -0.0000 0.7040
vn -1.0000 -0.0000 0.0090
vn 0.7376 -0.0000 0.6752
vn -1.0000 -0.0000 -0.0000
vn -0.9999 -0.0000 -0.0112
vn 0.6612 -0.0000 -0.7502
vn 0.8155 -0.0000 0.5787
vn 0.9212 -0.0000 -0.3892
vt 0.000000 0.750000
vt 0.000000 1.000000
vt 1.000000 1.000000
vt 1.000000 0.750000
vt 0.000000 0.000000
vt 0.000000 0.500000
vt 1.000000 0.500000
vt 1.000000 0.000000
s 0
f 136/19/69 135/22/69 132/21/69 131/20/69
f 129/23/69 130/26/69 134/25/69 133/24/69
f 133/24/69 134/25/69 135/22/69 136/19/69
f 143/19/70 142/20/70 141/21/70 140/22/70
f 138/23/70 137/24/70 144/25/70 139/26/70
f 137/24/70 143/19/70 140/22/70 144/25/70
f 136/19/71 143/19/71 137/24/71 133/24/71
f 135/22/72 140/22/72 141/21/72 132/21/72
f 133/24/73 137/24/73 138/23/73 129/23/73
f 134/25/74 144/25/74 140/22/74 135/22/74
f 130/26/75 139/26/75 144/25/75 134/25/75
f 132/21/76 141/21/76 142/20/76 131/20/76
f 129/23/77 138/23/77 139/26/77 130/26/77
f 131/20/78 142/20/78 143/19/78 136/19/78
o Plane.006
v -117.380760 0.000000 -810.841919
v -37.882095 0.000000 -698.804077
v -273.331726 0.000000 -1329.050781
v -40.438736 0.000000 -1536.806641
v -262.309143 0.000000 -969.165344
v -41.168526 0.000000 -993.395569
v -41.168526 0.000000 -1143.395508
v -376.644012 0.000000 -1084.496582
v -262.309143 2.966552 -969.165344
v -117.380760 2.966552 -810.841919
v -37.882095 2.966552 -698.804077
v -41.168526 2.966552 -1143.395508
v -40.438736 2.966552 -1536.806641
v -273.331726 2.966552 -1329.050781
v -376.644012 2.966552 -1084.496582
v -41.168526 2.966552 -993.395569
vn -0.0000 -1.0000 -0.0000
vn -0.0000 1.0000 -0.0000
vn -0.7102 -0.0000 0.7040
vn 1.0000 -0.0000 0.0019
vn -0.7376 -0.0000 0.6752
vn 1.0000 -0.0000 -0.0000
vn 0.9999 -0.0000 -0.0112
vn -0.6657 -0.0000 -0.7462
vn -0.8155 -0.0000 0.5787
vn -0.9212 -0.0000 -0.3892
vt 0.000000 0.750000
vt 0.000000 1.000000
vt 1.000000 1.000000
vt 1.000000 0.750000
vt 0.000000 0.000000
vt 0.000000 0.500000
vt 1.000000 0.500000
vt 1.000000 0.000000
s 0
f 152/27/79 147/28/79 148/29/79 151/30/79
f 145/31/79 149/32/79 150/33/79 146/34/79
f 149/32/79 152/27/79 151/30/79 150/33/79
f 159/27/80 156/30/80 157/29/80 158/28/80
f 154/31/80 155/34/80 160/33/80 153/32/80
f 153/32/80 160/33/80 156/30/80 159/27/80
f 152/27/81 149/32/81 153/32/81 159/27/81
f 151/30/82 148/29/82 157/29/82 156/30/82
f 149/32/83 145/31/83 154/31/83 153/32/83
f 150/33/84 151/30/84 156/30/84 160/33/84
f 146/34/85 150/33/85 160/33/85 155/34/85
f 148/29/86 147/28/86 158/28/86 157/29/86
f 145/31/87 146/34/87 155/34/87 154/31/87
f 147/28/88 152/27/88 159/27/88 158/28/88
